#tb 0: 1/15
#media_type 0: video
#codec_id 0: rawvideo
#dimensions 0: 480x800
#sar 0: 0/1
0,          0,          0,        1,   768000, 0x929e0d0f
0,          1,          1,        1,   768000, 0x6722b84e
0,          2,          2,        1,   768000, 0x0aaed34a
0,          3,          3,        1,   768000, 0xe945b17e
0,          4,          4,        1,   768000, 0xf4821102
